<svg width="51" height="101" viewBox="0 0 51 101" fill="none" xmlns="http://www.w3.org/2000/svg">
<path d="M7.48286 93.8192L48.5681 52.5063C49.7319 51.336 49.7319 49.4456 48.5681 48.2754L7.48286 6.96243C5.49798 4.96655 2.10501 6.55669 2.3689 9.35913L5.39705 41.5172C5.48649 42.467 6.02232 43.3176 6.84036 43.8085L13.5235 47.8183C15.4656 48.9835 15.4656 51.7981 13.5235 52.9633L6.84036 56.9732C6.02232 57.464 5.48649 58.3146 5.39705 59.2644L2.3689 91.4225C2.10501 94.2249 5.49798 95.8151 7.48286 93.8192Z" fill="#515386"/>
<path d="M48.5649 52.5171L7.41012 93.8762C5.32824 95.9684 1.79384 94.1124 2.33427 91.2108L7.98154 60.8899C8.13081 60.0885 8.59981 59.3823 9.28062 58.9338L18.4316 52.9064C20.2314 51.7209 20.2314 49.0811 18.4316 47.8956L9.28063 41.8682C8.59982 41.4197 8.13082 40.7135 7.98155 39.9121L2.33429 9.5913C1.79386 6.68966 5.32825 4.83372 7.41013 6.92593L48.5649 48.2849C49.7295 49.4553 49.7295 51.3467 48.5649 52.5171Z" fill="#6C72F0"/>
</svg>
